<mxfile host="app.diagrams.net" modified="2021-04-02T06:17:21.863Z" agent="5.0 (Macintosh; Intel Mac OS X 10_15_7) AppleWebKit/537.36 (KHTML, like Gecko) Chrome/89.0.4389.90 Safari/537.36" etag="6zukcEdrEV4gCqxz32fJ" version="14.5.4" type="github" pages="3">
  <diagram id="e3kDFs8t1NA5hozapq4e" name="Page-1">
    <mxGraphModel dx="788" dy="472" grid="1" gridSize="10" guides="1" tooltips="1" connect="1" arrows="1" fold="1" page="1" pageScale="1" pageWidth="827" pageHeight="1169" math="0" shadow="0">
      <root>
        <mxCell id="0" />
        <mxCell id="1" parent="0" />
        <mxCell id="BiHETa7HNFUiCbd0Lf1A-9" value="" style="rounded=1;whiteSpace=wrap;html=1;dashed=1;" vertex="1" parent="1">
          <mxGeometry x="640" y="540" width="130" height="150" as="geometry" />
        </mxCell>
        <mxCell id="BiHETa7HNFUiCbd0Lf1A-8" value="" style="rounded=1;whiteSpace=wrap;html=1;dashed=1;" vertex="1" parent="1">
          <mxGeometry x="360" y="540" width="130" height="150" as="geometry" />
        </mxCell>
        <mxCell id="EseYH3Ga1ECSR6PqHBBf-1" value="" style="rounded=1;whiteSpace=wrap;html=1;" parent="1" vertex="1">
          <mxGeometry x="245" y="280" width="520" height="140" as="geometry" />
        </mxCell>
        <mxCell id="EseYH3Ga1ECSR6PqHBBf-2" value="edgeGateway" style="rounded=1;whiteSpace=wrap;html=1;" parent="1" vertex="1">
          <mxGeometry x="330.87" y="300" width="120" height="60" as="geometry" />
        </mxCell>
        <mxCell id="EseYH3Ga1ECSR6PqHBBf-3" value="tunnel server" style="rounded=1;whiteSpace=wrap;html=1;" parent="1" vertex="1">
          <mxGeometry x="589" y="300" width="120" height="60" as="geometry" />
        </mxCell>
        <mxCell id="EseYH3Ga1ECSR6PqHBBf-5" value="" style="rounded=1;whiteSpace=wrap;html=1;gradientColor=#000000;" parent="1" vertex="1">
          <mxGeometry x="200" y="440" width="599" height="10" as="geometry" />
        </mxCell>
        <mxCell id="EseYH3Ga1ECSR6PqHBBf-6" value="" style="edgeStyle=orthogonalEdgeStyle;rounded=0;orthogonalLoop=1;jettySize=auto;html=1;strokeWidth=1;" parent="1" source="EseYH3Ga1ECSR6PqHBBf-8" edge="1">
          <mxGeometry relative="1" as="geometry">
            <mxPoint x="413" y="640" as="targetPoint" />
          </mxGeometry>
        </mxCell>
        <mxCell id="EseYH3Ga1ECSR6PqHBBf-7" value="6. 127.0.0.1:&amp;lt;container-port&amp;gt;/rest/of/path" style="edgeLabel;html=1;align=center;verticalAlign=middle;resizable=0;points=[];" parent="EseYH3Ga1ECSR6PqHBBf-6" vertex="1" connectable="0">
          <mxGeometry x="-0.1467" y="-1" relative="1" as="geometry">
            <mxPoint x="-112.41999999999999" y="1.870000000000001" as="offset" />
          </mxGeometry>
        </mxCell>
        <mxCell id="EseYH3Ga1ECSR6PqHBBf-8" value="service stream" style="rounded=1;whiteSpace=wrap;html=1;strokeColor=#000000;" parent="1" vertex="1">
          <mxGeometry x="365.87" y="551.13" width="95" height="50" as="geometry" />
        </mxCell>
        <mxCell id="EseYH3Ga1ECSR6PqHBBf-9" value="边缘节点1" style="text;html=1;resizable=0;autosize=1;align=center;verticalAlign=middle;points=[];fillColor=none;strokeColor=none;rounded=0;" parent="1" vertex="1">
          <mxGeometry x="394" y="700" width="70" height="20" as="geometry" />
        </mxCell>
        <mxCell id="EseYH3Ga1ECSR6PqHBBf-12" value="service stream" style="rounded=1;whiteSpace=wrap;html=1;strokeColor=#000000;" parent="1" vertex="1">
          <mxGeometry x="659.5" y="551.13" width="95" height="50" as="geometry" />
        </mxCell>
        <mxCell id="EseYH3Ga1ECSR6PqHBBf-13" value="边缘节点N" style="text;html=1;resizable=0;autosize=1;align=center;verticalAlign=middle;points=[];fillColor=none;strokeColor=none;rounded=0;" parent="1" vertex="1">
          <mxGeometry x="672" y="700" width="70" height="20" as="geometry" />
        </mxCell>
        <mxCell id="EseYH3Ga1ECSR6PqHBBf-14" value="" style="endArrow=classic;startArrow=classic;html=1;strokeWidth=3;entryX=0.5;entryY=1;entryDx=0;entryDy=0;" parent="1" target="EseYH3Ga1ECSR6PqHBBf-3" edge="1">
          <mxGeometry width="50" height="50" relative="1" as="geometry">
            <mxPoint x="410" y="550" as="sourcePoint" />
            <mxPoint x="489" y="362" as="targetPoint" />
          </mxGeometry>
        </mxCell>
        <mxCell id="EseYH3Ga1ECSR6PqHBBf-15" value="1. edge首先创建 Quic连接" style="edgeLabel;html=1;align=center;verticalAlign=middle;resizable=0;points=[];" parent="EseYH3Ga1ECSR6PqHBBf-14" vertex="1" connectable="0">
          <mxGeometry x="-0.3775" y="-1" relative="1" as="geometry">
            <mxPoint x="-109.12" y="18.34" as="offset" />
          </mxGeometry>
        </mxCell>
        <mxCell id="BiHETa7HNFUiCbd0Lf1A-12" value="Quic" style="edgeLabel;html=1;align=center;verticalAlign=middle;resizable=0;points=[];" vertex="1" connectable="0" parent="EseYH3Ga1ECSR6PqHBBf-14">
          <mxGeometry x="-0.1222" y="-1" relative="1" as="geometry">
            <mxPoint as="offset" />
          </mxGeometry>
        </mxCell>
        <mxCell id="EseYH3Ga1ECSR6PqHBBf-18" value="" style="endArrow=classic;startArrow=classic;html=1;strokeWidth=3;exitX=0.5;exitY=0;exitDx=0;exitDy=0;entryX=0.5;entryY=1;entryDx=0;entryDy=0;" parent="1" source="EseYH3Ga1ECSR6PqHBBf-12" target="EseYH3Ga1ECSR6PqHBBf-3" edge="1">
          <mxGeometry width="50" height="50" relative="1" as="geometry">
            <mxPoint x="406.5" y="560" as="sourcePoint" />
            <mxPoint x="489" y="360" as="targetPoint" />
          </mxGeometry>
        </mxCell>
        <mxCell id="EseYH3Ga1ECSR6PqHBBf-19" value="Quic" style="edgeLabel;html=1;align=center;verticalAlign=middle;resizable=0;points=[];" parent="EseYH3Ga1ECSR6PqHBBf-18" vertex="1" connectable="0">
          <mxGeometry x="-0.3394" y="3" relative="1" as="geometry">
            <mxPoint x="-3.61" y="-19.42" as="offset" />
          </mxGeometry>
        </mxCell>
        <mxCell id="EseYH3Ga1ECSR6PqHBBf-25" value="" style="endArrow=classic;html=1;strokeWidth=1;entryX=0.5;entryY=0;entryDx=0;entryDy=0;" parent="1" target="EseYH3Ga1ECSR6PqHBBf-2" edge="1" source="BiHETa7HNFUiCbd0Lf1A-1">
          <mxGeometry width="50" height="50" relative="1" as="geometry">
            <mxPoint x="305" y="200" as="sourcePoint" />
            <mxPoint x="234" y="110" as="targetPoint" />
          </mxGeometry>
        </mxCell>
        <mxCell id="EseYH3Ga1ECSR6PqHBBf-37" value="3. curl host:18080/&amp;lt;namespace&amp;gt;/&amp;lt;service&amp;gt;/rest/of/path" style="edgeLabel;html=1;align=center;verticalAlign=middle;resizable=0;points=[];" parent="EseYH3Ga1ECSR6PqHBBf-25" vertex="1" connectable="0">
          <mxGeometry x="-0.4417" y="2" relative="1" as="geometry">
            <mxPoint x="148" y="7.499999999999986" as="offset" />
          </mxGeometry>
        </mxCell>
        <mxCell id="EseYH3Ga1ECSR6PqHBBf-31" value="2. 监听该Quic连接" style="text;html=1;resizable=0;autosize=1;align=center;verticalAlign=middle;points=[];fillColor=none;strokeColor=none;rounded=0;labelBackgroundColor=none;" parent="1" vertex="1">
          <mxGeometry x="245" y="566.13" width="110" height="20" as="geometry" />
        </mxCell>
        <mxCell id="EseYH3Ga1ECSR6PqHBBf-33" value="" style="endArrow=classic;html=1;strokeWidth=1;exitX=1;exitY=0.25;exitDx=0;exitDy=0;" parent="1" source="EseYH3Ga1ECSR6PqHBBf-8" edge="1">
          <mxGeometry width="50" height="50" relative="1" as="geometry">
            <mxPoint x="466.87" y="571.13" as="sourcePoint" />
            <mxPoint x="490" y="490" as="targetPoint" />
          </mxGeometry>
        </mxCell>
        <mxCell id="EseYH3Ga1ECSR6PqHBBf-43" value="7. 写回Quic" style="edgeLabel;html=1;align=center;verticalAlign=middle;resizable=0;points=[];" parent="EseYH3Ga1ECSR6PqHBBf-33" vertex="1" connectable="0">
          <mxGeometry x="0.0417" relative="1" as="geometry">
            <mxPoint x="36.63" y="-0.91" as="offset" />
          </mxGeometry>
        </mxCell>
        <mxCell id="EseYH3Ga1ECSR6PqHBBf-38" value="4. 解析url，查询k8s, 执行LB策略&lt;br&gt;根据hostip key 查询Quic连接" style="text;html=1;resizable=0;autosize=1;align=center;verticalAlign=middle;points=[];fillColor=none;strokeColor=none;rounded=0;" parent="1" vertex="1">
          <mxGeometry x="265" y="360" width="190" height="30" as="geometry" />
        </mxCell>
        <mxCell id="EseYH3Ga1ECSR6PqHBBf-40" value="" style="endArrow=classic;html=1;strokeWidth=1;exitX=1;exitY=0.75;exitDx=0;exitDy=0;" parent="1" source="EseYH3Ga1ECSR6PqHBBf-2" edge="1">
          <mxGeometry width="50" height="50" relative="1" as="geometry">
            <mxPoint x="289" y="585" as="sourcePoint" />
            <mxPoint x="580" y="410" as="targetPoint" />
          </mxGeometry>
        </mxCell>
        <mxCell id="EseYH3Ga1ECSR6PqHBBf-42" value="&lt;span style=&quot;font-size: 12px ; background-color: rgb(248 , 249 , 250)&quot;&gt;5. 产生sessionid 将请求&lt;/span&gt;&lt;br style=&quot;font-size: 12px ; background-color: rgb(248 , 249 , 250)&quot;&gt;&lt;span style=&quot;font-size: 12px ; background-color: rgb(248 , 249 , 250)&quot;&gt;写入Quic连接&lt;/span&gt;" style="edgeLabel;html=1;align=center;verticalAlign=middle;resizable=0;points=[];" parent="EseYH3Ga1ECSR6PqHBBf-40" vertex="1" connectable="0">
          <mxGeometry x="0.0199" y="-2" relative="1" as="geometry">
            <mxPoint x="15.059999999999999" as="offset" />
          </mxGeometry>
        </mxCell>
        <mxCell id="EseYH3Ga1ECSR6PqHBBf-44" value="" style="endArrow=classic;html=1;strokeWidth=1;exitX=0;exitY=0.25;exitDx=0;exitDy=0;entryX=1;entryY=0.25;entryDx=0;entryDy=0;" parent="1" source="EseYH3Ga1ECSR6PqHBBf-3" target="EseYH3Ga1ECSR6PqHBBf-2" edge="1">
          <mxGeometry width="50" height="50" relative="1" as="geometry">
            <mxPoint x="289" y="585" as="sourcePoint" />
            <mxPoint x="345" y="520" as="targetPoint" />
          </mxGeometry>
        </mxCell>
        <mxCell id="EseYH3Ga1ECSR6PqHBBf-45" value="8. 写回response" style="edgeLabel;html=1;align=center;verticalAlign=middle;resizable=0;points=[];" parent="EseYH3Ga1ECSR6PqHBBf-44" vertex="1" connectable="0">
          <mxGeometry x="0.0417" relative="1" as="geometry">
            <mxPoint x="16.000000000000004" y="-0.91" as="offset" />
          </mxGeometry>
        </mxCell>
        <mxCell id="BiHETa7HNFUiCbd0Lf1A-1" value="" style="shape=umlActor;verticalLabelPosition=bottom;verticalAlign=top;html=1;outlineConnect=0;" vertex="1" parent="1">
          <mxGeometry x="375.87" y="160" width="30" height="60" as="geometry" />
        </mxCell>
        <mxCell id="BiHETa7HNFUiCbd0Lf1A-7" value="云节点" style="text;html=1;resizable=0;autosize=1;align=center;verticalAlign=middle;points=[];fillColor=none;strokeColor=none;rounded=0;" vertex="1" parent="1">
          <mxGeometry x="765" y="400" width="50" height="20" as="geometry" />
        </mxCell>
        <mxCell id="BiHETa7HNFUiCbd0Lf1A-10" value="" style="html=1;dashed=0;whitespace=wrap;fillColor=#2875E2;strokeColor=#ffffff;points=[[0.005,0.63,0],[0.1,0.2,0],[0.9,0.2,0],[0.5,0,0],[0.995,0.63,0],[0.72,0.99,0],[0.5,1,0],[0.28,0.99,0]];shape=mxgraph.kubernetes.icon;prIcon=pod" vertex="1" parent="1">
          <mxGeometry x="388" y="642" width="50" height="48" as="geometry" />
        </mxCell>
        <mxCell id="BiHETa7HNFUiCbd0Lf1A-13" value="&lt;font style=&quot;font-size: 36px&quot;&gt;....&lt;/font&gt;" style="text;html=1;resizable=0;autosize=1;align=center;verticalAlign=middle;points=[];fillColor=none;strokeColor=none;rounded=0;dashed=1;" vertex="1" parent="1">
          <mxGeometry x="535" y="605" width="60" height="30" as="geometry" />
        </mxCell>
      </root>
    </mxGraphModel>
  </diagram>
  <diagram id="USa6_3r1vDkGLewsqTKD" name="Page-2">
    <mxGraphModel dx="946" dy="566" grid="1" gridSize="10" guides="1" tooltips="1" connect="1" arrows="1" fold="1" page="1" pageScale="1" pageWidth="827" pageHeight="1169" math="0" shadow="0">
      <root>
        <mxCell id="dg1-1N98U26iSnXzxUXa-0" />
        <mxCell id="dg1-1N98U26iSnXzxUXa-1" parent="dg1-1N98U26iSnXzxUXa-0" />
        <mxCell id="O3KysbvYYoVfuiGVFDsW-13" value="" style="rounded=1;whiteSpace=wrap;html=1;dashed=1;" vertex="1" parent="dg1-1N98U26iSnXzxUXa-1">
          <mxGeometry x="510" y="540" width="250" height="120" as="geometry" />
        </mxCell>
        <mxCell id="O3KysbvYYoVfuiGVFDsW-11" value="" style="rounded=1;whiteSpace=wrap;html=1;dashed=1;" vertex="1" parent="dg1-1N98U26iSnXzxUXa-1">
          <mxGeometry x="50" y="540" width="250" height="120" as="geometry" />
        </mxCell>
        <mxCell id="O3KysbvYYoVfuiGVFDsW-6" value="" style="rounded=1;whiteSpace=wrap;html=1;dashed=1;" vertex="1" parent="dg1-1N98U26iSnXzxUXa-1">
          <mxGeometry x="201.5" y="270" width="400" height="150" as="geometry" />
        </mxCell>
        <mxCell id="dg1-1N98U26iSnXzxUXa-2" value="&lt;span&gt;EdgeGateway&lt;/span&gt;" style="rounded=1;whiteSpace=wrap;html=1;" parent="dg1-1N98U26iSnXzxUXa-1" vertex="1">
          <mxGeometry x="299" y="330" width="100" height="50" as="geometry" />
        </mxCell>
        <mxCell id="dg1-1N98U26iSnXzxUXa-5" value="" style="rounded=1;whiteSpace=wrap;html=1;gradientColor=#000000;" parent="dg1-1N98U26iSnXzxUXa-1" vertex="1">
          <mxGeometry x="59" y="440" width="740" height="10" as="geometry" />
        </mxCell>
        <mxCell id="dg1-1N98U26iSnXzxUXa-8" value="ServiceStream" style="rounded=1;whiteSpace=wrap;html=1;strokeColor=#000000;" parent="dg1-1N98U26iSnXzxUXa-1" vertex="1">
          <mxGeometry x="99" y="550" width="95" height="50" as="geometry" />
        </mxCell>
        <mxCell id="dg1-1N98U26iSnXzxUXa-10" value="Service Stream" style="rounded=1;whiteSpace=wrap;html=1;strokeColor=#000000;" parent="dg1-1N98U26iSnXzxUXa-1" vertex="1">
          <mxGeometry x="619" y="550" width="95" height="50" as="geometry" />
        </mxCell>
        <mxCell id="dg1-1N98U26iSnXzxUXa-12" value="" style="endArrow=classic;startArrow=classic;html=1;strokeWidth=3;entryX=0.5;entryY=1;entryDx=0;entryDy=0;" parent="dg1-1N98U26iSnXzxUXa-1" target="O3KysbvYYoVfuiGVFDsW-6" edge="1">
          <mxGeometry width="50" height="50" relative="1" as="geometry">
            <mxPoint x="159" y="550" as="sourcePoint" />
            <mxPoint x="564" y="360" as="targetPoint" />
          </mxGeometry>
        </mxCell>
        <mxCell id="dg1-1N98U26iSnXzxUXa-14" value="" style="endArrow=classic;startArrow=classic;html=1;strokeWidth=3;exitX=0.5;exitY=0;exitDx=0;exitDy=0;entryX=0.5;entryY=1;entryDx=0;entryDy=0;" parent="dg1-1N98U26iSnXzxUXa-1" source="dg1-1N98U26iSnXzxUXa-10" target="O3KysbvYYoVfuiGVFDsW-6" edge="1">
          <mxGeometry width="50" height="50" relative="1" as="geometry">
            <mxPoint x="406.5" y="560" as="sourcePoint" />
            <mxPoint x="564" y="360" as="targetPoint" />
          </mxGeometry>
        </mxCell>
        <mxCell id="d_ZVnK9o4DrCNgeFsquM-0" value="公网" style="text;html=1;resizable=0;autosize=1;align=center;verticalAlign=middle;points=[];fillColor=none;strokeColor=none;rounded=0;" parent="dg1-1N98U26iSnXzxUXa-1" vertex="1">
          <mxGeometry x="674" y="410" width="40" height="20" as="geometry" />
        </mxCell>
        <mxCell id="d_ZVnK9o4DrCNgeFsquM-1" value="内网" style="text;html=1;resizable=0;autosize=1;align=center;verticalAlign=middle;points=[];fillColor=none;strokeColor=none;rounded=0;" parent="dg1-1N98U26iSnXzxUXa-1" vertex="1">
          <mxGeometry x="674" y="460" width="40" height="20" as="geometry" />
        </mxCell>
        <mxCell id="d_ZVnK9o4DrCNgeFsquM-3" value="长连接连接池" style="text;html=1;resizable=0;autosize=1;align=center;verticalAlign=middle;points=[];rounded=1;strokeColor=#000000;" parent="dg1-1N98U26iSnXzxUXa-1" vertex="1">
          <mxGeometry x="361.5" y="400" width="90" height="20" as="geometry" />
        </mxCell>
        <mxCell id="O3KysbvYYoVfuiGVFDsW-1" value="&lt;span style=&quot;color: rgb(0 , 0 , 0) ; font-family: &amp;#34;helvetica&amp;#34; ; font-size: 12px ; font-style: normal ; font-weight: 400 ; letter-spacing: normal ; text-align: center ; text-indent: 0px ; text-transform: none ; word-spacing: 0px ; background-color: rgb(248 , 249 , 250) ; display: inline ; float: none&quot;&gt;边缘节点1&lt;/span&gt;" style="text;whiteSpace=wrap;html=1;" vertex="1" parent="dg1-1N98U26iSnXzxUXa-1">
          <mxGeometry x="114" y="660" width="80" height="30" as="geometry" />
        </mxCell>
        <mxCell id="O3KysbvYYoVfuiGVFDsW-2" value="&lt;span style=&quot;color: rgb(0 , 0 , 0) ; font-family: &amp;#34;helvetica&amp;#34; ; font-size: 12px ; font-style: normal ; font-weight: 400 ; letter-spacing: normal ; text-align: center ; text-indent: 0px ; text-transform: none ; word-spacing: 0px ; background-color: rgb(248 , 249 , 250) ; display: inline ; float: none&quot;&gt;边缘节点N&lt;/span&gt;" style="text;whiteSpace=wrap;html=1;" vertex="1" parent="dg1-1N98U26iSnXzxUXa-1">
          <mxGeometry x="640" y="660" width="80" height="30" as="geometry" />
        </mxCell>
        <mxCell id="O3KysbvYYoVfuiGVFDsW-3" value="云节点&amp;nbsp;" style="text;html=1;resizable=0;autosize=1;align=center;verticalAlign=middle;points=[];fillColor=none;strokeColor=none;rounded=0;" vertex="1" parent="dg1-1N98U26iSnXzxUXa-1">
          <mxGeometry x="606.5" y="400" width="50" height="20" as="geometry" />
        </mxCell>
        <mxCell id="O3KysbvYYoVfuiGVFDsW-4" value="&lt;font style=&quot;font-size: 36px&quot;&gt;...&lt;/font&gt;" style="text;html=1;resizable=0;autosize=1;align=center;verticalAlign=middle;points=[];fillColor=none;strokeColor=none;rounded=0;" vertex="1" parent="dg1-1N98U26iSnXzxUXa-1">
          <mxGeometry x="380" y="560" width="50" height="30" as="geometry" />
        </mxCell>
        <mxCell id="O3KysbvYYoVfuiGVFDsW-5" value="&lt;span&gt;TunnelServer&lt;br&gt;&lt;/span&gt;" style="rounded=1;whiteSpace=wrap;html=1;" vertex="1" parent="dg1-1N98U26iSnXzxUXa-1">
          <mxGeometry x="404" y="330" width="100" height="50" as="geometry" />
        </mxCell>
        <mxCell id="O3KysbvYYoVfuiGVFDsW-10" value="" style="html=1;dashed=0;whitespace=wrap;fillColor=#2875E2;strokeColor=#ffffff;points=[[0.005,0.63,0],[0.1,0.2,0],[0.9,0.2,0],[0.5,0,0],[0.995,0.63,0],[0.72,0.99,0],[0.5,1,0],[0.28,0.99,0]];shape=mxgraph.kubernetes.icon;prIcon=svc" vertex="1" parent="dg1-1N98U26iSnXzxUXa-1">
          <mxGeometry x="381.5" y="270" width="50" height="48" as="geometry" />
        </mxCell>
        <mxCell id="O3KysbvYYoVfuiGVFDsW-12" value="" style="html=1;dashed=0;whitespace=wrap;fillColor=#2875E2;strokeColor=#ffffff;points=[[0.005,0.63,0],[0.1,0.2,0],[0.9,0.2,0],[0.5,0,0],[0.995,0.63,0],[0.72,0.99,0],[0.5,1,0],[0.28,0.99,0]];shape=mxgraph.kubernetes.icon;prIcon=pod" vertex="1" parent="dg1-1N98U26iSnXzxUXa-1">
          <mxGeometry x="230" y="612" width="50" height="48" as="geometry" />
        </mxCell>
        <mxCell id="O3KysbvYYoVfuiGVFDsW-14" value="" style="html=1;dashed=0;whitespace=wrap;fillColor=#2875E2;strokeColor=#ffffff;points=[[0.005,0.63,0],[0.1,0.2,0],[0.9,0.2,0],[0.5,0,0],[0.995,0.63,0],[0.72,0.99,0],[0.5,1,0],[0.28,0.99,0]];shape=mxgraph.kubernetes.icon;prIcon=pod" vertex="1" parent="dg1-1N98U26iSnXzxUXa-1">
          <mxGeometry x="700" y="612" width="50" height="48" as="geometry" />
        </mxCell>
        <mxCell id="O3KysbvYYoVfuiGVFDsW-15" value="" style="html=1;dashed=0;whitespace=wrap;fillColor=#2875E2;strokeColor=#ffffff;points=[[0.005,0.63,0],[0.1,0.2,0],[0.9,0.2,0],[0.5,0,0],[0.995,0.63,0],[0.72,0.99,0],[0.5,1,0],[0.28,0.99,0]];shape=mxgraph.kubernetes.icon;prIcon=pod" vertex="1" parent="dg1-1N98U26iSnXzxUXa-1">
          <mxGeometry x="160" y="612" width="50" height="48" as="geometry" />
        </mxCell>
        <mxCell id="O3KysbvYYoVfuiGVFDsW-16" value="" style="html=1;dashed=0;whitespace=wrap;fillColor=#2875E2;strokeColor=#ffffff;points=[[0.005,0.63,0],[0.1,0.2,0],[0.9,0.2,0],[0.5,0,0],[0.995,0.63,0],[0.72,0.99,0],[0.5,1,0],[0.28,0.99,0]];shape=mxgraph.kubernetes.icon;prIcon=pod" vertex="1" parent="dg1-1N98U26iSnXzxUXa-1">
          <mxGeometry x="624" y="612" width="50" height="48" as="geometry" />
        </mxCell>
        <mxCell id="O3KysbvYYoVfuiGVFDsW-17" value="&lt;font style=&quot;font-size: 24px&quot;&gt;...&lt;/font&gt;" style="text;html=1;resizable=0;autosize=1;align=center;verticalAlign=middle;points=[];fillColor=none;strokeColor=none;rounded=0;" vertex="1" parent="dg1-1N98U26iSnXzxUXa-1">
          <mxGeometry x="197" y="634" width="40" height="20" as="geometry" />
        </mxCell>
        <mxCell id="O3KysbvYYoVfuiGVFDsW-18" value="&lt;font style=&quot;font-size: 24px&quot;&gt;...&lt;/font&gt;" style="text;html=1;resizable=0;autosize=1;align=center;verticalAlign=middle;points=[];fillColor=none;strokeColor=none;rounded=0;" vertex="1" parent="dg1-1N98U26iSnXzxUXa-1">
          <mxGeometry x="670" y="634" width="40" height="20" as="geometry" />
        </mxCell>
        <mxCell id="PvI-XBFEPz52MMvKv60U-0" value="Pod" style="text;html=1;resizable=0;autosize=1;align=center;verticalAlign=middle;points=[];fillColor=none;strokeColor=none;rounded=0;" vertex="1" parent="dg1-1N98U26iSnXzxUXa-1">
          <mxGeometry x="120" y="640" width="40" height="20" as="geometry" />
        </mxCell>
        <mxCell id="PvI-XBFEPz52MMvKv60U-1" value="Pod" style="text;html=1;resizable=0;autosize=1;align=center;verticalAlign=middle;points=[];fillColor=none;strokeColor=none;rounded=0;" vertex="1" parent="dg1-1N98U26iSnXzxUXa-1">
          <mxGeometry x="584" y="639" width="40" height="20" as="geometry" />
        </mxCell>
      </root>
    </mxGraphModel>
  </diagram>
  <diagram id="5K1sNLnAeH8A82h2Xz65" name="示意图">
    <mxGraphModel dx="788" dy="472" grid="1" gridSize="10" guides="1" tooltips="1" connect="1" arrows="1" fold="1" page="1" pageScale="1" pageWidth="827" pageHeight="1169" math="0" shadow="0">
      <root>
        <mxCell id="qnLlW9IPjl1r8Sg7vRfY-0" />
        <mxCell id="qnLlW9IPjl1r8Sg7vRfY-1" parent="qnLlW9IPjl1r8Sg7vRfY-0" />
        <mxCell id="P-H0r3o2qKfd69MvDTQB-0" value="核心云" style="ellipse;shape=cloud;whiteSpace=wrap;html=1;" vertex="1" parent="qnLlW9IPjl1r8Sg7vRfY-1">
          <mxGeometry x="349" y="270" width="120" height="80" as="geometry" />
        </mxCell>
        <mxCell id="jV7z9rBKbcj3Tatsq296-0" value="" style="rounded=1;whiteSpace=wrap;html=1;gradientColor=#000000;" vertex="1" parent="qnLlW9IPjl1r8Sg7vRfY-1">
          <mxGeometry x="199" y="400" width="430" height="10" as="geometry" />
        </mxCell>
        <mxCell id="jV7z9rBKbcj3Tatsq296-1" value="" style="shape=image;html=1;verticalAlign=top;verticalLabelPosition=bottom;labelBackgroundColor=#ffffff;imageAspect=0;aspect=fixed;image=https://cdn2.iconfinder.com/data/icons/communication-416/32/Communication_radio_station_signal_antena_tower-128.png" vertex="1" parent="qnLlW9IPjl1r8Sg7vRfY-1">
          <mxGeometry x="380" y="440" width="70" height="70" as="geometry" />
        </mxCell>
        <mxCell id="jV7z9rBKbcj3Tatsq296-2" value="" style="outlineConnect=0;fontColor=#232F3E;gradientColor=none;fillColor=#277116;strokeColor=none;dashed=0;verticalLabelPosition=bottom;verticalAlign=top;align=center;html=1;fontSize=12;fontStyle=0;aspect=fixed;pointerEvents=1;shape=mxgraph.aws4.car;" vertex="1" parent="qnLlW9IPjl1r8Sg7vRfY-1">
          <mxGeometry x="255" y="546" width="78" height="78" as="geometry" />
        </mxCell>
        <mxCell id="jV7z9rBKbcj3Tatsq296-3" value="" style="outlineConnect=0;fontColor=#232F3E;gradientColor=none;fillColor=#277116;strokeColor=none;dashed=0;verticalLabelPosition=bottom;verticalAlign=top;align=center;html=1;fontSize=12;fontStyle=0;aspect=fixed;pointerEvents=1;shape=mxgraph.aws4.car;" vertex="1" parent="qnLlW9IPjl1r8Sg7vRfY-1">
          <mxGeometry x="505" y="546" width="78" height="78" as="geometry" />
        </mxCell>
        <mxCell id="jV7z9rBKbcj3Tatsq296-4" value="" style="edgeStyle=segmentEdgeStyle;endArrow=classic;html=1;entryX=0.5;entryY=1;entryDx=0;entryDy=0;strokeWidth=2;" edge="1" parent="qnLlW9IPjl1r8Sg7vRfY-1" source="jV7z9rBKbcj3Tatsq296-2" target="jV7z9rBKbcj3Tatsq296-1">
          <mxGeometry width="50" height="50" relative="1" as="geometry">
            <mxPoint x="375" y="570" as="sourcePoint" />
            <mxPoint x="425" y="520" as="targetPoint" />
          </mxGeometry>
        </mxCell>
        <mxCell id="jV7z9rBKbcj3Tatsq296-6" value="" style="edgeStyle=segmentEdgeStyle;endArrow=classic;html=1;strokeWidth=2;" edge="1" parent="qnLlW9IPjl1r8Sg7vRfY-1" source="jV7z9rBKbcj3Tatsq296-3">
          <mxGeometry width="50" height="50" relative="1" as="geometry">
            <mxPoint x="342.9091141898639" y="595" as="sourcePoint" />
            <mxPoint x="415" y="510" as="targetPoint" />
          </mxGeometry>
        </mxCell>
        <mxCell id="jV7z9rBKbcj3Tatsq296-8" value="" style="endArrow=classic;html=1;entryX=0.55;entryY=0.95;entryDx=0;entryDy=0;entryPerimeter=0;exitX=0.5;exitY=0;exitDx=0;exitDy=0;strokeWidth=2;" edge="1" parent="qnLlW9IPjl1r8Sg7vRfY-1" source="jV7z9rBKbcj3Tatsq296-1" target="P-H0r3o2qKfd69MvDTQB-0">
          <mxGeometry width="50" height="50" relative="1" as="geometry">
            <mxPoint x="385" y="460" as="sourcePoint" />
            <mxPoint x="435" y="410" as="targetPoint" />
          </mxGeometry>
        </mxCell>
        <mxCell id="jV7z9rBKbcj3Tatsq296-11" value="" style="shape=mxgraph.signs.travel.tunnel;html=1;pointerEvents=1;fillColor=#000000;strokeColor=none;verticalLabelPosition=bottom;verticalAlign=top;align=center;dashed=1;" vertex="1" parent="qnLlW9IPjl1r8Sg7vRfY-1">
          <mxGeometry x="270" y="474" width="48" height="40" as="geometry" />
        </mxCell>
        <mxCell id="jV7z9rBKbcj3Tatsq296-12" value="" style="aspect=fixed;html=1;points=[];align=center;image;fontSize=12;image=img/lib/mscae/Azure_Firewall.svg;dashed=1;" vertex="1" parent="qnLlW9IPjl1r8Sg7vRfY-1">
          <mxGeometry x="140" y="380" width="50" height="50" as="geometry" />
        </mxCell>
        <mxCell id="jV7z9rBKbcj3Tatsq296-13" value="" style="shape=mxgraph.signs.travel.tunnel;html=1;pointerEvents=1;fillColor=#000000;strokeColor=none;verticalLabelPosition=bottom;verticalAlign=top;align=center;dashed=1;" vertex="1" parent="qnLlW9IPjl1r8Sg7vRfY-1">
          <mxGeometry x="270" y="320" width="51" height="39" as="geometry" />
        </mxCell>
        <mxCell id="jV7z9rBKbcj3Tatsq296-15" value="" style="shape=partialRectangle;whiteSpace=wrap;html=1;left=0;right=0;fillColor=none;rotation=90;" vertex="1" parent="qnLlW9IPjl1r8Sg7vRfY-1">
          <mxGeometry x="240" y="400" width="111" height="40" as="geometry" />
        </mxCell>
        <mxCell id="jV7z9rBKbcj3Tatsq296-17" value="" style="endArrow=classic;html=1;strokeWidth=2;dashed=1;" edge="1" parent="qnLlW9IPjl1r8Sg7vRfY-1" target="P-H0r3o2qKfd69MvDTQB-0">
          <mxGeometry width="50" height="50" relative="1" as="geometry">
            <mxPoint x="590" y="300" as="sourcePoint" />
            <mxPoint x="210" y="290" as="targetPoint" />
          </mxGeometry>
        </mxCell>
        <mxCell id="jV7z9rBKbcj3Tatsq296-18" value="" style="shape=image;html=1;verticalAlign=top;verticalLabelPosition=bottom;labelBackgroundColor=#ffffff;imageAspect=0;aspect=fixed;image=https://cdn0.iconfinder.com/data/icons/google-material-design-3-0/48/ic_http_48px-128.png" vertex="1" parent="qnLlW9IPjl1r8Sg7vRfY-1">
          <mxGeometry x="530" y="250" width="64" height="64" as="geometry" />
        </mxCell>
        <mxCell id="jV7z9rBKbcj3Tatsq296-19" value="" style="endArrow=classic;html=1;strokeWidth=2;exitX=0.16;exitY=0.55;exitDx=0;exitDy=0;exitPerimeter=0;entryX=0.5;entryY=0;entryDx=0;entryDy=0;entryPerimeter=0;dashed=1;" edge="1" parent="qnLlW9IPjl1r8Sg7vRfY-1" source="P-H0r3o2qKfd69MvDTQB-0" target="jV7z9rBKbcj3Tatsq296-13">
          <mxGeometry width="50" height="50" relative="1" as="geometry">
            <mxPoint x="240" y="310" as="sourcePoint" />
            <mxPoint x="290" y="260" as="targetPoint" />
          </mxGeometry>
        </mxCell>
        <mxCell id="jV7z9rBKbcj3Tatsq296-20" value="" style="endArrow=classic;html=1;dashed=1;strokeWidth=2;exitX=0.5;exitY=1;exitDx=0;exitDy=0;exitPerimeter=0;" edge="1" parent="qnLlW9IPjl1r8Sg7vRfY-1" source="jV7z9rBKbcj3Tatsq296-11" target="jV7z9rBKbcj3Tatsq296-2">
          <mxGeometry width="50" height="50" relative="1" as="geometry">
            <mxPoint x="130" y="630" as="sourcePoint" />
            <mxPoint x="180" y="580" as="targetPoint" />
          </mxGeometry>
        </mxCell>
        <mxCell id="jV7z9rBKbcj3Tatsq296-21" value="Quic隧道" style="text;html=1;resizable=0;autosize=1;align=center;verticalAlign=middle;points=[];fillColor=none;strokeColor=none;rounded=0;" vertex="1" parent="qnLlW9IPjl1r8Sg7vRfY-1">
          <mxGeometry x="321" y="360" width="60" height="20" as="geometry" />
        </mxCell>
        <mxCell id="jV7z9rBKbcj3Tatsq296-22" value="Quic隧道" style="text;html=1;resizable=0;autosize=1;align=center;verticalAlign=middle;points=[];fillColor=none;strokeColor=none;rounded=0;" vertex="1" parent="qnLlW9IPjl1r8Sg7vRfY-1">
          <mxGeometry x="320" y="500" width="60" height="20" as="geometry" />
        </mxCell>
        <mxCell id="jV7z9rBKbcj3Tatsq296-24" value="" style="aspect=fixed;html=1;points=[];align=center;image;fontSize=12;image=img/lib/mscae/Kubernetes.svg;" vertex="1" parent="qnLlW9IPjl1r8Sg7vRfY-1">
          <mxGeometry x="440" y="340" width="50" height="48" as="geometry" />
        </mxCell>
      </root>
    </mxGraphModel>
  </diagram>
</mxfile>
